<?xml version="1.0" encoding="UTF-8" standalone="no"?>
<!-- Created with Inkscape (http://www.inkscape.org/) -->

<svg
   version="1.1"
   id="svg1"
   width="850"
   height="680"
   viewBox="0 0 850 680"
   sodipodi:docname="emptyBlue.svg"
   inkscape:version="1.4.1-rc (06eac75fbf, 2025-03-29)"
   xml:space="preserve"
   xmlns:inkscape="http://www.inkscape.org/namespaces/inkscape"
   xmlns:sodipodi="http://sodipodi.sourceforge.net/DTD/sodipodi-0.dtd"
   xmlns="http://www.w3.org/2000/svg"
   xmlns:svg="http://www.w3.org/2000/svg"><defs
     id="defs1" /><sodipodi:namedview
     id="namedview1"
     pagecolor="#ffffff"
     bordercolor="#000000"
     borderopacity="0.25"
     inkscape:showpageshadow="2"
     inkscape:pageopacity="0.0"
     inkscape:pagecheckerboard="0"
     inkscape:deskcolor="#d1d1d1"
     inkscape:zoom="0.70910507"
     inkscape:cx="199.5473"
     inkscape:cy="382.87697"
     inkscape:window-width="2494"
     inkscape:window-height="1011"
     inkscape:window-x="0"
     inkscape:window-y="0"
     inkscape:window-maximized="1"
     inkscape:current-layer="g1"
     inkscape:clip-to-page="false" /><g
     inkscape:groupmode="layer"
     inkscape:label="Image"
     id="g1"><path
       style="fill:#11395f;fill-opacity:1"
       d="M 0.66667,678.21748 C 0.3,677.85082 0,657.60082 0,633.21748 v -44.33333 h 9.98687 9.98687 l 0.26313,34.25 0.26313,34.25 23.45588,0.5 23.45588,0.5 1.69463,9.5 c 0.93204,5.225 1.48784,9.8375 1.2351,10.25 -0.56773,0.9266 -68.75001,1.00815 -69.67482,0.0833 z M 89.5,676.98248 c -5.16116,-2.39702 -8.14223,-5.30631 -10.00468,-9.76377 -1.21666,-2.91187 -1.49123,-9.19335 -1.47336,-33.70668 0.0198,-27.15116 0.20437,-30.52309 1.86808,-34.12788 2.13579,-4.62763 5.42189,-7.91663 9.42506,-9.43339 4.43926,-1.68199 57.88985,-1.42564 62.01371,0.29742 4.16217,1.73906 8.30326,6.65005 9.62718,11.41702 0.60219,2.16828 1.03518,15.99199 1.03843,33.15323 0.005,27.3354 -0.13598,29.72419 -1.97958,33.5 -2.15448,4.41247 -6.75577,8.05744 -12.10991,9.59299 -1.86545,0.535 -14.8697,0.96285 -28.89833,0.95077 C 96.28197,678.84259 93.06373,678.6376 89.5,676.98248 Z M 139,655.88415 c 1.86946,-1.86946 2,-3.33333 2,-22.42742 v -20.42742 l -2.63486,-2.07258 c -2.41486,-1.89953 -3.96333,-2.07258 -18.54545,-2.07258 -22.0686,0 -20.81969,-1.48564 -20.81969,24.76598 0,26.1057 -1.62491,24.23402 21.03896,24.23402 15.62771,0 17.11826,-0.15722 18.96104,-2 z m 60.61991,21.45187 C 199.27896,676.44753 199,660.68238 199,642.30236 v -33.41821 h -13.89962 -13.89962 l -1.65175,-7.42433 c -0.90847,-4.08338 -1.74114,-8.62928 -1.85039,-10.10199 l -0.19862,-2.67765 41.97531,0.16063 c 23.08643,0.0883 42.13932,0.32463 42.33976,0.52507 0.20044,0.20044 -0.63143,4.67405 -1.84859,9.94136 l -2.21303,9.57691 h -13.36377 -13.36376 l -0.26296,34.75 -0.26296,34.75 -10.13009,0.28366 c -8.57386,0.24008 -10.22533,0.0355 -10.75,-1.33179 z m 72.17145,0.58213 c -4.64432,-1.43842 -8.94848,-5.16893 -10.88593,-9.43507 -1.6768,-3.69222 -1.86369,-6.9832 -1.88347,-33.16743 -0.0242,-32.04497 0.62915,-36.81623 5.70453,-41.65827 1.52543,-1.4553 4.12351,-3.15714 5.77351,-3.78188 3.63354,-1.37576 48.56372,-2.09713 56.27852,-0.90356 6.44125,0.99653 10.62748,3.82755 13.24412,8.95659 1.84922,3.62477 1.97712,5.96844 1.97362,36.16578 -0.004,36.56337 0.096,36.05171 -8.13164,41.49982 l -4.21346,2.79002 -27.57558,0.18645 c -15.16657,0.10255 -28.79447,-0.19105 -30.28422,-0.65245 z m 45.83674,-20.63241 c 1.17046,-0.3141 2.63296,-1.67913 3.25,-3.0334 1.60445,-3.52138 1.4663,-39.33678 -0.1599,-41.45485 -2.57383,-3.35232 -5.51527,-3.91334 -20.5176,-3.91334 -13.59098,0 -15.16734,0.18599 -17.56574,2.07258 L 280,613.02931 v 20.87072 c 0,26.01319 -1.68615,23.98951 19.97251,23.97047 8.54012,-0.008 16.48514,-0.27065 17.65559,-0.58476 z m 52.05688,20.58155 c -4.25761,-1.27796 -9.20862,-5.45951 -11.04425,-9.32782 C 357.2245,665.555 357,660.64187 357,632.63306 v -32.44883 l 2.98028,-4.11417 c 5.65887,-7.81183 5.1659,-7.72738 43.00536,-7.36694 18.4171,0.17544 33.64392,0.47725 33.83736,0.6707 0.37228,0.37228 -1.32252,9.46372 -2.93798,15.76033 l -0.96211,3.75 -24.71145,0.0147 c -17.90478,0.0107 -25.40008,0.36292 -27.21146,1.27878 l -2.5,1.26403 -0.26983,21.2014 c -0.34697,27.26279 -1.91263,25.24109 19.54732,25.24109 19.31204,0 20.22251,-0.38524 20.22251,-8.5567 v -5.4433 H 407.5 397 v -9.52029 -9.52029 l 20.75,0.27029 20.75,0.27029 0.27158,19.24753 c 0.24483,17.35111 0.082,19.61725 -1.65268,23 -2.42644,4.73176 -5.62414,7.72997 -10.35043,9.70474 -3.0329,1.26723 -8.2862,1.53215 -28.98635,1.46178 -13.90517,-0.0473 -26.54888,-0.46618 -28.09714,-0.93091 z m 81.94379,-0.50817 c -0.76337,-1.9893 -0.76205,-84.96409 0.001,-86.95355 0.50763,-1.32186 5.18233,-1.52142 35.63936,-1.52142 h 35.05515 l 4.25083,2.49115 c 2.33796,1.37014 5.3025,4.18264 6.58786,6.25 2.22579,3.57994 2.33703,4.62401 2.33703,21.93552 0,16.87656 -0.14963,18.37861 -2.09195,21 -2.79565,3.77306 -8.15544,7.32333 -11.05593,7.32333 -1.29367,0 -2.35212,0.45539 -2.35212,1.01199 0,0.55659 1.95717,4.04409 4.34926,7.75 C 534.1357,671.80759 537,676.583 537,677.7377 c 0,0.89446 -2.83028,1.13939 -10.75,0.93028 l -10.75,-0.28383 -7.6695,-13 c -11.45499,-19.41649 -9.01084,-17.5 -22.31817,-17.5 -6.26686,0 -11.62783,0.37787 -11.91326,0.83971 -0.28544,0.46184 -0.5827,6.84414 -0.66059,14.1829 -0.0779,7.33875 -0.36906,13.93588 -0.64704,14.66029 -0.78737,2.05185 -19.8692,1.85983 -20.66267,-0.20793 z m 61.7998,-51.0464 C 514.49942,625.24187 515,622.87549 515,618.88415 c 0,-8.94416 -0.0787,-8.97989 -20.07143,-9.11111 -9.31071,-0.0611 -17.94107,-0.16285 -19.17857,-0.22608 -2.13652,-0.10917 -2.27522,0.32955 -2.75,8.69843 -0.275,4.84737 -0.3125,8.99911 -0.0833,9.22608 0.22916,0.22698 9.08452,0.41268 19.67857,0.41268 16.17749,0 19.51354,-0.25163 20.83333,-1.57143 z m 28.17755,51.74313 c -0.28156,-0.45557 3.53042,-11.81807 8.47106,-25.25 4.94064,-13.43194 11.3862,-30.9467 14.32346,-38.9217 2.93726,-7.975 6.10989,-16.8625 7.05028,-19.75 l 1.70981,-5.25 h 15.83221 15.83221 l 2.52915,6.75 c 1.39104,3.7125 4.99001,13.5 7.99771,21.75 3.00771,8.25 8.93866,24.45 13.17989,36 4.24123,11.55 7.93406,22.0125 8.20629,23.25 0.49088,2.23144 0.40023,2.25 -10.98762,2.25 h -11.48259 l -2.19891,-6.25 c -1.20939,-3.4375 -2.67814,-7.49682 -3.26388,-9.02071 l -1.06498,-2.7707 -19.53632,0.2707 -19.53632,0.27071 -2.58379,7.52227 c -1.42108,4.13726 -2.94784,8.07476 -3.3928,8.75 -0.92886,1.40961 -20.23451,1.77533 -21.08486,0.39943 z M 601,640.92145 c 0,-2.23624 -9.34062,-28.7243 -10.57961,-30.00159 -2.44589,-2.52147 -4.42482,0.84874 -9.49669,16.17324 -3.65581,11.04595 -4.42389,14.40459 -3.3825,14.79105 2.2068,0.81896 23.4588,-0.0532 23.4588,-0.9627 z m 43,-7.00232 v -45.03498 h 35.54531 35.54532 l -0.66486,3.75 c -0.36567,2.0625 -1.1934,6.45 -1.83939,9.75 l -1.17453,6 -22.95592,0.5 -22.95593,0.5 v 8.5 8.5 l 21.37095,0.27024 21.37095,0.27024 -0.56791,2.83955 c -0.31235,1.56175 -0.87665,5.26514 -1.25401,8.22976 -0.37735,2.96461 -1.13132,5.95271 -1.67548,6.64021 -0.73045,0.92286 -6.05429,1.25 -20.34217,1.25 h -19.35279 l -0.27477,16.25 -0.27477,16.25 -10.25,0.28498 -10.25,0.28499 z m 82.70046,44.33215 C 726.31521,677.86602 726,657.60082 726,633.21748 v -44.33333 h 10.5103 10.51029 l -0.26029,44.75 -0.2603,44.75 -9.54954,0.28379 c -5.25225,0.15609 -9.86475,-0.0314 -10.25,-0.41666 z m 29.89711,-0.20926 c -0.52445,-0.84858 2.09788,-9.38363 5.73248,-18.65787 0.86218,-2.2 4.56694,-12.325 8.23279,-22.5 3.66584,-10.175 8.00563,-22.1 9.64396,-26.5 1.63834,-4.4 3.99123,-10.925 5.22866,-14.5 l 2.24986,-6.5 h 15.28679 15.28679 l 7.93623,21.5 c 4.36493,11.825 8.31487,22.625 8.77766,24 0.82051,2.43788 6.58027,18.43936 11.69841,32.5 4.54668,12.49069 5.10625,11.5 -6.49561,11.5 -6.84275,0 -10.31615,-0.39243 -10.86657,-1.22773 -0.44496,-0.67524 -1.97174,-4.61274 -3.39284,-8.75 l -2.58381,-7.52227 -20.01833,-0.27023 -20.01833,-0.27024 -2.98086,8.77024 -2.98086,8.77023 -10.0869,0.2841 c -5.5478,0.15625 -10.34008,-0.12555 -10.64952,-0.62623 z m 59.34255,-37.0245 c -0.0329,-0.34835 -2.39735,-7.37758 -5.25426,-15.6205 C 805.037,609.09861 803.45432,607.17112 800.46579,612.9503 798.78628,616.19813 791,639.17201 791,640.8797 c 0,0.51523 4.8375,1.06451 10.75,1.22062 10.98494,0.29003 14.29602,0.0374 14.19012,-1.0828 z M 384,548.41935 C 359.46305,545.76209 348.36509,543.66069 328.07469,537.82988 281.56044,524.46319 240.98545,501.89798 213.09252,473.88415 203.02653,463.77453 188,445.01154 188,442.55218 c 0,-0.6541 3.68293,-3.39637 8.18428,-6.09393 l 8.18428,-4.90466 1.56572,2.3676 c 10.23529,15.47727 34.40962,38.50113 53.06572,50.5403 2.475,1.59717 4.725,3.13315 5,3.4133 1.4003,1.42651 23.30034,13.01403 31,16.4024 27.15864,11.95164 64.48874,21.68654 94.5,24.64361 15.19742,1.49744 47.80019,1.51531 61.5,0.0337 51.11963,-5.52844 94.17972,-20.03313 129.48595,-43.61702 21.28749,-14.21963 38.05697,-29.60731 50.49564,-46.3348 l 5.31211,-7.1437 5.10315,2.89775 c 2.80673,1.59376 6.5628,3.73693 8.34683,4.76258 1.78402,1.02566 3.24137,2.31483 3.23855,2.86483 -0.0107,2.08623 -14.57732,20.38094 -23.34294,29.31718 -39.23261,39.99625 -94.15323,65.50693 -162.13929,75.31384 -18.31724,2.64224 -64.84322,3.42464 -83.5,1.40418 z m 10.19508,-46.63821 C 368.2868,499.47577 339.43496,492.4513 314.5,482.37801 283.13843,469.70848 253.5754,447.29275 236.88665,423.52883 l -4.95357,-7.05363 3.78346,-2.31605 c 2.0809,-1.27383 6.14912,-3.52743 9.04049,-5.008 l 5.25703,-2.69194 1.72092,2.46247 c 3.22749,4.61822 12.65696,15.45313 17.21591,19.7819 26.78297,25.43074 61.62555,41.55411 107.88251,49.92252 13.60352,2.46103 16.76861,2.65715 43.6666,2.7057 31.03601,0.056 38.50133,-0.68014 61.5,-6.06457 31.17081,-7.2977 57.35405,-19.32474 77.71323,-35.69691 8.39347,-6.74975 23.05409,-21.76226 26.71978,-27.36111 1.50338,-2.29622 3.30002,-4.39237 3.99252,-4.65811 1.48879,-0.5713 16.74675,7.3499 17.28859,8.9754 0.48715,1.46147 -9.85499,15.14625 -18.35239,24.28398 C 553.41398,479.46711 488.33895,503.26115 420,502.73592 c -9.075,-0.0697 -20.68721,-0.4994 -25.80492,-0.95478 z m 15.06535,-43.69672 c -0.94902,-0.61663 -1.30061,-11.27886 -1.5,-45.48987 L 407.5,367.9101 l -11.5,7.73702 -11.5,7.73703 -0.26228,37.3617 -0.26229,37.3617 -4.54698,-0.68186 c -6.68103,-1.00188 -15.62162,-3.45697 -17.12115,-4.70147 -1.03561,-0.85948 -1.30412,-9.11281 -1.29199,-39.71251 0.008,-21.24516 0.35198,-39.15689 0.76346,-39.80385 1.02765,-1.61574 10.89485,-8.78959 30.01721,-21.82371 l 16.1381,-11 0.033,-30.35699 c 0.0259,-23.88889 -0.23337,-30.25336 -1.21704,-29.87061 -1.10505,0.42997 -17.16647,11.43782 -26.75,18.33338 -1.925,1.38508 -7.325,5.17525 -12,8.42261 -16.96922,11.78719 -19.48617,13.5669 -27.17823,19.21745 L 333,331.87584 v 55.07154 55.07155 l -2.15169,-0.68292 c -4.60642,-1.46202 -19.34287,-8.63223 -20.06027,-9.76058 -0.41658,-0.6552 -0.76431,-25.99957 -0.77273,-56.32082 l -0.0153,-55.12954 4.25,-3.42786 c 3.82702,-3.0867 17.43441,-12.75512 44.75,-31.79608 5.225,-3.64221 15.8,-11.10519 23.5,-16.5844 7.7,-5.47921 14.96924,-10.63053 16.15387,-11.44739 1.18463,-0.81685 6.51043,-4.54935 11.8351,-8.29444 9.65309,-6.78946 9.68898,-6.80431 12.34613,-5.10883 2.58352,1.6485 21.66304,15.07542 40.46411,28.476 5.06043,3.60686 17.07579,12.12163 26.70079,18.92171 17.23113,12.17383 21.86176,15.49699 33.25,23.86174 l 5.75,4.22342 v 56.87058 56.87057 l -10.706,4.52873 c -5.8883,2.4908 -11.0633,4.30791 -11.5,4.03801 -0.4367,-0.26989 -0.81129,-5.75166 -0.83242,-12.1817 l -0.0384,-11.69098 -12.66833,-8.68124 c -6.96758,-4.77468 -13.02529,-8.46063 -13.46158,-8.19098 -0.43629,0.26964 -0.79325,12.12763 -0.79325,26.35108 v 25.86083 l -6.75,1.49216 c -3.7125,0.82069 -8.65692,1.79537 -10.98759,2.16596 l -4.23759,0.67379 -0.26241,-36.8358 -0.26241,-36.8358 -12,-8.12655 -12,-8.12654 -0.5,45.62654 -0.5,45.62655 -10.5,0.25284 c -5.775,0.13907 -11.0578,-0.10959 -11.73957,-0.55257 z M 506,360.47881 v -29.40535 l -6.75,-4.92829 c -10.38101,-7.57937 -18.76073,-13.26102 -19.55832,-13.26102 -0.39679,0 -0.60224,13.35924 -0.45656,29.6872 l 0.26488,29.68721 12.5,8.72139 c 6.875,4.79677 12.8375,8.76253 13.25,8.8128 0.4125,0.0503 0.75,-13.141 0.75,-29.31394 z m -49.01531,-33.84466 c -0.008,-16.0875 -0.34592,-29.70256 -0.75,-30.25569 -0.96519,-1.32121 -6.90919,-5.74789 -16.49921,-12.28746 l -7.76451,-5.29473 0.26451,30.79394 0.26452,30.79394 11.45802,7.75 c 6.30191,4.2625 11.81441,7.75 12.25,7.75 0.43559,0 0.78509,-13.1625 0.77667,-29.25 z M 290.61045,259.40883 c -2.22529,-2.40114 -2.31474,-3.24104 -2.98446,-28.02351 -0.45128,-16.69923 -0.33089,-26.88336 0.34758,-29.403 0.78496,-2.91513 3.53522,-6.30044 11.28221,-13.88737 12.35952,-12.10416 18.99578,-18.14813 19.96603,-18.18407 1.03254,-0.0382 19.77819,17.11831 19.77819,18.10156 0,0.45015 -6.26414,5.54039 -13.92031,11.31164 -7.65618,5.77125 -14.19889,10.94393 -14.53938,11.49484 -0.34048,0.55091 -1.497,8.55346 -2.57005,17.78344 -2.90714,25.00615 -3.75838,28.96996 -6.722,31.30115 -3.48683,2.74274 -7.8244,2.54104 -10.63781,-0.49468 z m 246.94809,-0.79499 c -1.49479,-2.28134 -3.45496,-13.65314 -5.55548,-32.22969 -1.89618,-16.76949 -1.19443,-15.64173 -17.04846,-27.39833 -7.71231,-5.71909 -13.89463,-10.68779 -13.73849,-11.04157 0.48357,-1.09566 18.9457,-18.06115 19.63425,-18.04259 0.84269,0.0227 9.17449,7.70682 21.38422,19.72184 6.90748,6.79733 9.90325,10.4784 10.31534,12.67507 0.31942,1.70264 0.43886,14.42055 0.26542,28.26202 -0.31399,25.05884 -0.32569,25.17733 -2.73965,27.74494 -3.30537,3.51575 -10.30262,3.6881 -12.51715,0.30831 z M 414.5,207.88415 c -24.5725,-0.47255 -26.19216,-0.62043 -29.5,-2.69352 -1.925,-1.20644 -16.97042,-15.71894 -33.43426,-32.25 -16.46384,-16.53106 -30.09516,-30.05648 -30.29181,-30.05648 -0.19665,0 -21.33678,-4.27695 -46.97807,-9.50433 -25.64129,-5.22738 -46.78479,-9.34007 -46.98555,-9.13931 -0.20076,0.20076 -2.08736,4.90695 -4.19243,10.4582 -2.10508,5.55125 -4.53407,11.17168 -5.39776,12.48983 -5.04337,7.69716 -22.17887,7.44317 -29.42239,-0.43612 -4.57511,-4.97667 -5.22488,-8.50452 -5.936,-32.22908 -0.60502,-20.18485 -0.49971,-22.77966 1.01856,-25.09684 l 1.69336,-2.58438 19.71317,0.27101 19.71318,0.27102 2.37276,4.78459 2.37277,4.78459 50.62723,-0.28459 C 327.21181,96.40263 330.72732,96.26199 334,94.50331 c 1.925,-1.03446 11.99775,-10.61657 22.3839,-21.29356 10.38614,-10.677 20.15129,-20.06812 21.70034,-20.86916 4.35725,-2.25322 79.66007,-2.14614 84.43576,0.12007 1.82724,0.86709 11.74333,10.13089 22.03576,20.58623 10.40557,10.57027 20.54054,19.97033 22.82888,21.17349 4.03958,2.12393 5.04018,2.16862 54.33984,2.42714 l 50.22447,0.26337 2.27553,-4.76337 2.27552,-4.76337 19.21288,-0.27146 19.21289,-0.27147 1.6723,2.55227 c 1.47829,2.25615 1.61537,5.18812 1.18153,25.27146 -0.5409,25.03897 -1.11319,27.81748 -6.77326,32.88448 -8.42207,7.53959 -23.19192,7.08589 -28.40652,-0.87259 -0.82987,-1.26654 -3.1342,-6.7929 -5.12075,-12.28082 -1.98654,-5.48791 -3.74063,-10.10676 -3.89797,-10.26411 -0.27933,-0.27932 -11.05855,1.87758 -65.98775,13.20406 -14.79865,3.0515 -27.3618,5.54818 -27.91811,5.54818 -0.55631,0 -14.99831,13.88832 -32.09335,30.86292 -32.64874,32.41874 -33.93287,33.42984 -43.58189,34.31574 -1.925,0.17674 -15.2,0.0963 -29.5,-0.17866 z m 34.93424,-26.39068 c 5.98209,-4.9043 9.11872,-8.17551 12.09057,-12.60932 3.31385,-4.94406 12.49896,-33.29085 13.17102,-40.64796 0.63816,-6.98597 0.79424,-6.69857 -12.13884,-22.35204 -10.9515,-13.25508 -12.56713,-14.84493 -16.43577,-16.1735 -5.30944,-1.82337 -48.48911,-1.80433 -52.81924,0.0233 -1.80328,0.76111 -5.93284,4.68625 -9.46871,9 -3.44887,4.20762 -6.50976,7.87521 -6.80197,8.15021 -2.18289,2.0543 -9.03353,11.09814 -10.37791,13.70034 -2.82387,5.46594 -2.35628,8.06381 6.08353,33.79966 4.51559,13.76956 4.69133,14.09671 10.67712,19.87522 3.34728,3.23138 7.87147,7.19096 10.05375,8.79909 l 3.96779,2.92385 23.62648,-0.29908 23.62648,-0.29909 z m -38.19112,-19.26042 c -6.24257,-1.91055 -13.47088,-7.91486 -16.37035,-13.59829 -1.12399,-2.2032 -2.285,-6.34464 -2.58003,-9.20319 -2.53527,-24.56438 27.47217,-39.82979 46.08624,-23.44503 5.8554,5.15413 8.69223,10.59142 9.35829,17.93681 0.97798,10.7853 -5.42177,22.2092 -15.05391,26.87204 -5.89322,2.85286 -14.85314,3.45366 -21.44024,1.43766 z M 196.25,75.22187 c -0.87745,-0.35406 -1.25456,-3.38546 -1.26531,-10.17105 -0.008,-5.31667 -0.34592,-10.15619 -0.75,-10.75449 C 193.83061,53.69803 188.775,52.74166 183,52.17107 l -10.5,-1.03745 -37,-17.73291 C 115.15,23.64761 94.675,13.88755 90,11.71169 79.81543,6.9715497 72.2254,3.0674797 69.5,1.1671497 67.58306,-0.16946027 67.60383,-0.20544027 70,0.30088973 c 2.51541,0.53153 17.58422,3.31067997 43.5,8.02275997 7.7,1.40003 27.95,5.0090903 45,8.0201303 47.92865,8.46423 43.38353,7.20117 48.6533,13.52044 L 210.5,33.87741 263,44.40498 c 28.875,5.79016 54.91061,11.00857 57.85691,11.59646 2.9463,0.58789 4.9713,1.42348 4.5,1.85686 C 324.88561,58.29168 306.275,59.90678 284,61.44741 l -40.5,2.80115 -10.20899,-5.16383 C 222.3174,53.53415 215.36109,51.64749 214.57625,54.009 c -0.25136,0.75633 -0.67311,5.87515 -0.93722,11.37515 -0.26411,5.5 -0.51594,10.1125 -0.55962,10.25 -0.14954,0.47078 -15.57761,0.0928 -16.82941,-0.41228 z m 430.13576,-10.58772 -0.88576,-11.25 -4,0.30227 c -2.36555,0.17876 -8.365,2.5016 -14.68252,5.68471 -9.78195,4.92869 -11.1308,5.3446 -16,4.93359 C 587.89287,64.05784 571.55,62.96541 554.5,61.87708 c -36.30643,-2.31751 -42.02792,-2.87686 -40.86382,-3.99501 0.4751,-0.45634 27.12602,-6.04507 59.22428,-12.41938 55.09341,-10.94087 58.47466,-11.73486 60.40056,-14.18325 4.07887,-5.18543 7.25504,-7.35997 12.19942,-8.35221 5.75271,-1.15446 40.59856,-7.33454 70.65938,-12.53178 11.2091,-1.9379603 28.4736,-5.0648803 38.36556,-6.9487103 9.89196,-1.88384 18.13904,-3.27149997 18.32685,-3.08368997 0.46682,0.46682 -42.29489,21.32534027 -66.79671,32.58244027 -4.11646,1.89126 -14.24146,6.77121 -22.5,10.84433 -14.69067,7.24546 -15.2535,7.42962 -26.01552,8.51224 l -11,1.10657 -0.28735,10.45182 c -0.18742,6.81713 -0.70905,10.71982 -1.5,11.22245 -0.66696,0.42384 -4.86406,0.77752 -9.32689,0.78594 l -8.11424,0.0153 z"
       id="path1"
       sodipodi:nodetypes="sscccccccssssssssssscsssssscssssssscccsscssscccccssssssssscscssssssscscsssscsssscsscssscccccccsssssscscssssssssscssssssssssssssssssscccssssscsscccssssssssccccsscccccccssssccccccsscccccssssssscccsssssscccccssssssssssssscsssssssscsssssssssscsscsssssssssssssscccccsscsscssssscccssscssssssssscccssscssscsscccccccsssscssscssscsscccsscsssssssssssssssssssssssssssssssscccccsssssssscccccssssssssssssssssssssssscccssssssssscsscssssssscsssscsssssccsssssssssssssscssscc" /></g></svg>
